<svg width="12" height="14" viewBox="0 0 12 14" fill="none" xmlns="http://www.w3.org/2000/svg">
<path d="M5.985 11.8665L8.85843 8.98147C9.38581 8.46185 9.74257 7.84916 9.9287 7.1434C10.1071 6.45316 10.1071 5.76291 9.9287 5.07267C9.74257 4.36691 9.38775 3.75229 8.86425 3.22879C8.34075 2.70529 7.72612 2.35047 7.02037 2.16434C6.33012 1.98596 5.63988 1.98596 4.94963 2.16434C4.24388 2.35047 3.62925 2.70529 3.10575 3.22879C2.58225 3.75229 2.22743 4.36691 2.0413 5.07267C1.86292 5.76291 1.86292 6.45316 2.0413 7.1434C2.22743 7.84916 2.58419 8.46185 3.11157 8.98147L5.985 11.8665ZM5.985 13.5068L2.2856 9.80744C1.61087 9.14046 1.15717 8.34939 0.9245 7.43424C0.691833 6.5501 0.691833 5.66597 0.9245 4.78184C1.15717 3.86668 1.60893 3.07367 2.27978 2.40282C2.95064 1.73196 3.74364 1.27632 4.6588 1.0359C5.54293 0.810991 6.42707 0.810991 7.3112 1.0359C8.22636 1.27632 9.01936 1.73196 9.69022 2.40282C10.3611 3.07367 10.8128 3.86668 11.0455 4.78184C11.2782 5.66597 11.2782 6.5501 11.0455 7.43424C10.8128 8.34939 10.3591 9.14046 9.6844 9.80744L5.985 13.5068ZM5.985 7.27137C6.1944 7.27137 6.38829 7.21902 6.56667 7.11432C6.74504 7.00962 6.88658 6.86808 6.99128 6.6897C7.09598 6.51132 7.14833 6.31744 7.14833 6.10804C7.14833 5.89864 7.09598 5.70475 6.99128 5.52637C6.88658 5.34799 6.74504 5.20645 6.56667 5.10175C6.38829 4.99705 6.1944 4.9447 5.985 4.9447C5.7756 4.9447 5.58171 4.99705 5.40333 5.10175C5.22496 5.20645 5.08342 5.34799 4.97872 5.52637C4.87402 5.70475 4.82167 5.89864 4.82167 6.10804C4.82167 6.31744 4.87402 6.51132 4.97872 6.6897C5.08342 6.86808 5.22496 7.00962 5.40333 7.11432C5.58171 7.21902 5.7756 7.27137 5.985 7.27137ZM5.985 8.4347C5.5662 8.4347 5.17842 8.33 4.82167 8.1206C4.46491 7.9112 4.18183 7.62812 3.97243 7.27137C3.76303 6.91461 3.65833 6.5249 3.65833 6.10222C3.65833 5.67954 3.76303 5.29176 3.97243 4.93889C4.18183 4.58601 4.46491 4.30487 4.82167 4.09547C5.17842 3.88607 5.5662 3.78137 5.985 3.78137C6.4038 3.78137 6.79158 3.88607 7.14833 4.09547C7.50509 4.30487 7.78817 4.58601 7.99757 4.93889C8.20697 5.29176 8.31167 5.67954 8.31167 6.10222C8.31167 6.5249 8.20697 6.91461 7.99757 7.27137C7.78817 7.62812 7.50509 7.9112 7.14833 8.1206C6.79158 8.33 6.4038 8.4347 5.985 8.4347Z" fill="#4B5563"/>
</svg>
