<svg width="14" height="19" viewBox="0 0 14 19" fill="none" xmlns="http://www.w3.org/2000/svg">
<path d="M6.00334 11.0418V0.69499H13.8567V3.63999H7.96668V14.4383C7.96668 15.1451 7.78998 15.7996 7.43658 16.4017C7.08318 17.0037 6.60543 17.4815 6.00334 17.8349C5.40125 18.1883 4.74681 18.365 4.04001 18.365C3.33321 18.365 2.67876 18.1883 2.07668 17.8349C1.47459 17.4815 0.996842 17.0037 0.643442 16.4017C0.290042 15.7996 0.113342 15.1451 0.113342 14.4383C0.113342 13.7315 0.290042 13.0771 0.643442 12.475C0.996842 11.8729 1.47459 11.3952 2.07668 11.0418C2.67876 10.6884 3.33321 10.5117 4.04001 10.5117C4.74681 10.5117 5.40125 10.6884 6.00334 11.0418Z" fill="#8E6FF7"/>
</svg>
