<svg width="19" height="19" viewBox="0 0 19 19" fill="none" xmlns="http://www.w3.org/2000/svg">
<path d="M14.5835 13.0761L18.3893 16.8819L17.1266 18.1445L13.3208 14.3388C12.6213 14.896 11.8566 15.3228 11.0267 15.6192C10.1493 15.9275 9.24828 16.0816 8.32351 16.0816C6.87708 16.0816 5.53142 15.72 4.28654 14.9968C3.07723 14.2854 2.12282 13.3251 1.42332 12.1158C0.688245 10.8709 0.320709 9.52522 0.320709 8.07879C0.320709 6.63236 0.688245 5.2867 1.42332 4.04182C2.12282 2.83251 3.07723 1.8781 4.28654 1.1786C5.53142 0.443525 6.87708 0.0759888 8.32351 0.0759888C9.76994 0.0759888 11.1156 0.443525 12.3605 1.1786C13.5698 1.8781 14.5301 2.83251 15.2415 4.04182C15.9647 5.2867 16.3263 6.63236 16.3263 8.07879C16.3263 9.00356 16.1722 9.90461 15.8639 10.782C15.5675 11.6119 15.1407 12.3766 14.5835 13.0761ZM12.7873 12.4181C13.3445 11.849 13.7773 11.1969 14.0855 10.4618C14.3938 9.70306 14.5479 8.90871 14.5479 8.07879C14.5479 6.95247 14.2634 5.90321 13.6943 4.93102C13.1489 3.9944 12.4079 3.2534 11.4713 2.70802C10.4991 2.13893 9.44983 1.85439 8.32351 1.85439C7.19719 1.85439 6.14793 2.13893 5.17574 2.70802C4.23912 3.2534 3.49812 3.9944 2.95274 4.93102C2.38365 5.90321 2.09911 6.95247 2.09911 8.07879C2.09911 9.20511 2.38365 10.2544 2.95274 11.2266C3.49812 12.1632 4.23912 12.9042 5.17574 13.4496C6.14793 14.0186 7.19719 14.3032 8.32351 14.3032C9.15343 14.3032 9.94778 14.1491 10.7066 13.8408C11.4416 13.5325 12.0937 13.0998 12.6628 12.5426L12.7873 12.4181Z" fill="#6B7280"/>
</svg>
