<svg width="12" height="12" viewBox="0 0 12 12" fill="none" xmlns="http://www.w3.org/2000/svg">
<path d="M5.985 11.9863C5.19393 11.9863 4.43777 11.8351 3.7165 11.5326C3.02626 11.2379 2.41163 10.8211 1.87262 10.282C1.33361 9.74303 0.916746 9.12841 0.622035 8.43816C0.319568 7.71689 0.168335 6.96073 0.168335 6.16966C0.168335 5.37859 0.319568 4.62243 0.622035 3.90116C0.916746 3.21092 1.33361 2.59629 1.87262 2.05728C2.41163 1.51827 3.02626 1.10141 3.7165 0.806694C4.43777 0.504228 5.19393 0.352994 5.985 0.352994C6.77607 0.352994 7.53224 0.504228 8.2535 0.806694C8.94375 1.10141 9.55837 1.51827 10.0974 2.05728C10.6364 2.59629 11.0533 3.21092 11.348 3.90116C11.6504 4.62243 11.8017 5.37859 11.8017 6.16966C11.8017 6.96073 11.6504 7.71689 11.348 8.43816C11.0533 9.12841 10.6364 9.74303 10.0974 10.282C9.55837 10.8211 8.94375 11.2379 8.2535 11.5326C7.53224 11.8351 6.77607 11.9863 5.985 11.9863ZM5.985 10.823C6.83036 10.823 7.61367 10.6097 8.33494 10.1832C9.03294 9.77212 9.58746 9.21759 9.9985 8.51959C10.4251 7.79833 10.6383 7.01502 10.6383 6.16966C10.6383 5.32431 10.4251 4.54099 9.9985 3.81973C9.58746 3.12173 9.03294 2.56721 8.33494 2.15616C7.61367 1.72961 6.83036 1.51633 5.985 1.51633C5.13965 1.51633 4.35634 1.72961 3.63507 2.15616C2.93707 2.56721 2.38255 3.12173 1.9715 3.81973C1.54495 4.54099 1.33167 5.32431 1.33167 6.16966C1.33167 7.01502 1.54495 7.79833 1.9715 8.51959C2.38255 9.21759 2.93707 9.77212 3.63507 10.1832C4.35634 10.6097 5.13965 10.823 5.985 10.823ZM6.56667 6.16966H8.89334V7.33299H5.40334V3.26133H6.56667V6.16966Z" fill="#4B5563"/>
</svg>
