<svg data-v-423bf9ae="" xmlns="http://www.w3.org/2000/svg" viewBox="0 0 402 90" class="iconLeft"><!----><!----><!----><g data-v-423bf9ae="" id="bb61e7e1-31c2-4a61-83b5-529110a8cc5c" fill="#1A1626" transform="matrix(4.51127813079263,0,0,4.51127813079263,148.36749158463613,11.8421069715492)"><path d="M9.46 2.30L10.08 9.45L8.89 9.91L8.99 10.50L12.67 10.50L12.77 9.91L11.58 9.45L10.92 1.75L12.14 1.29L12.03 0.70L9.42 0.70L6.31 8.97L6.31 7.95L3.85 0.70L1.32 0.70L1.22 1.29L2.44 1.75L1.61 9.45L0.41 9.91L0.52 10.50L3.30 10.50L3.40 9.91L2.21 9.45L2.94 2.62L5.68 10.74L6.37 10.50ZM13.83 8.15C13.83 9.65 14.73 10.50 16.25 10.50C17.35 10.50 18.19 9.74 18.51 8.75L18.23 10.35L18.23 11.16C18.23 12.74 17.35 13.26 16.37 13.26C15.33 13.26 14.80 12.74 14.80 12.17C14.80 11.82 15.01 11.44 15.43 11.21L15.15 10.79C14.56 11.00 13.89 11.54 13.89 12.25C13.89 13.41 15.04 14 16.37 14C18.03 14 19.54 13.22 19.54 11.10L19.54 3.96L19.05 3.81L18.23 3.96L18.23 7.21C18.23 9.16 17.19 9.98 16.49 9.98C15.92 9.98 15.15 9.69 15.15 8.41L15.15 4.45C15.15 4.45 15.16 3.79 14.39 3.79C13.93 3.79 13.43 3.91 13.10 3.95L13.10 4.45L13.83 4.45ZM23.93 1.75L25.16 1.29L25.05 0.70L21.34 0.70L21.22 1.29L22.46 1.75L22.46 9.45L21.22 9.91L21.34 10.50L25.05 10.50L25.16 9.91L23.93 9.45ZM28.64 4.47C28.64 4.47 28.66 3.81 27.89 3.81C27.43 3.81 26.81 3.91 26.49 3.96L26.49 4.47L27.33 4.47L27.33 10.50L28.64 10.50L28.64 7.39C28.64 5.32 29.68 4.47 30.39 4.47C31.09 4.47 31.53 5.05 31.53 5.95L31.53 9.38C31.53 10.36 32.21 10.65 32.73 10.65C33.11 10.65 33.47 10.60 33.67 10.50L33.67 10.00C33.24 10.00 32.84 9.79 32.84 9.35L32.84 6.30C32.84 4.76 32.20 3.81 30.67 3.81C29.95 3.81 28.99 4.45 28.64 5.43ZM38.53 3.81C38.09 3.81 37.76 4.16 37.76 4.59C37.76 5.03 38.09 5.36 38.53 5.36L38.91 4.80C39.58 5.18 39.83 6.47 39.83 7.43C39.83 9.45 38.71 10.12 38.01 10.12C37.11 10.12 36.40 9.63 36.40 8.39L36.40 4.47C36.40 4.47 36.41 3.81 35.64 3.81C35.18 3.81 34.62 3.91 34.30 3.96L34.30 4.47L35.08 4.47L35.08 8.26C35.08 9.56 36.01 10.65 37.53 10.65C39.06 10.65 40.49 10.18 40.49 7.24C40.49 6.30 40.00 3.81 38.53 3.81ZM43.06 0.74C42.64 0.74 42.31 1.08 42.31 1.50C42.31 1.92 42.64 2.25 43.06 2.25C43.47 2.25 43.82 1.92 43.82 1.50C43.82 1.08 43.47 0.74 43.06 0.74ZM43.76 4.47C43.76 4.47 43.78 3.81 43.01 3.81C42.55 3.81 41.93 3.91 41.61 3.96L41.61 4.47L42.45 4.47L42.45 10.50L43.76 10.50ZM47.31 2.34L46.66 2.18L46.07 3.65L45.08 3.96L45.18 4.47L45.99 4.47L45.99 8.85C45.99 9.87 46.55 10.65 47.84 10.65C48.64 10.65 49.04 10.33 49.50 9.84L49.18 9.46C48.89 9.79 48.58 10.00 48.08 10.00C47.66 10.00 47.31 9.62 47.31 8.96L47.31 4.47L49.04 4.47L49.14 3.96L47.31 3.96ZM56.07 5.78C56.07 4.34 54.98 3.81 53.35 3.81C51.39 3.81 49.99 5.07 49.99 7.22C49.99 9.30 51.16 10.65 53.63 10.65C54.54 10.65 55.44 10.37 56.04 9.83L55.72 9.37C55.15 9.73 54.46 10.00 53.72 10.00C52.44 10.00 51.73 9.14 51.53 7.87C53.90 7.87 56.07 7.49 56.07 5.78ZM51.48 7.11C51.48 5.52 52.09 4.33 53.30 4.33C54.26 4.33 54.75 4.73 54.75 5.61C54.75 6.65 53.31 7.36 51.48 7.38Z"></path></g><defs data-v-423bf9ae=""><linearGradient data-v-423bf9ae="" gradientTransform="rotate(25)" id="14509463-8bdd-41a1-8579-9b0345826ae4" x1="0%" y1="0%" x2="100%" y2="0%"><stop data-v-423bf9ae="" offset="0%" style="stop-color: rgb(70, 42, 185); stop-opacity: 1;"></stop><stop data-v-423bf9ae="" offset="100%" style="stop-color: rgb(115, 112, 72); stop-opacity: 1;"></stop></linearGradient></defs><g data-v-423bf9ae="" id="83441c29-2ce2-4f91-bfe0-69e0c36e5e31" transform="matrix(1.4452187179571838,0,0,1.4452187179571838,-6.311945187153455,-29.29672437336822)" stroke="none" fill="url(#14509463-8bdd-41a1-8579-9b0345826ae4)"><path d="M95.051 39.028a.838.838 0 00-.25-.597l-9.078-9.015-.002-.003c-.024-.022-.05-.041-.075-.061-.014-.012-.027-.025-.043-.037-.026-.018-.055-.031-.084-.046-.015-.008-.03-.019-.047-.026L71.46 22.997l-.003.004a.879.879 0 00-.26-.074l-21.253-2.042a.877.877 0 00-.162 0l-20.981 2.043a.756.756 0 00-.234.061l-.002-.003-14.406 5.852c-.019.009-.035.02-.052.03a.775.775 0 00-.098.052c-.021.014-.04.032-.059.047-.027.022-.053.042-.078.067l-.015.014-8.684 9.41a.84.84 0 00-.224.571v3.687l.002.024a.816.816 0 00.02.162l.002.015a.87.87 0 00.062.165c.006.014.014.026.021.04.023.04.048.078.076.113a.923.923 0 00.028.038l.014.018c.019.019.039.032.059.05l-.003.003L49.3 82.939a.843.843 0 001.126.002l44.342-39.597-.001-.002c.026-.024.053-.047.077-.075.004-.003.005-.009.01-.012l.023-.032a.86.86 0 00.073-.115c.007-.015.015-.028.021-.045a.84.84 0 00.049-.135l.008-.028a.688.688 0 00.02-.17l.003-.016v-3.686zm-66.808-4.892l6.327 6.662-15.79 7.367-2.691-10.095 12.154-3.934zm21.623 2.118l12.945 5.271-12.61 10.857-12.635-11.055 12.3-5.073zm14.033 6.558l2.047 8.811-6.539 1.033h-6.938l11.43-9.844zm7.872-8.657l11.821 4.119-1.495 9.307L65.82 40.93l5.951-6.775zm8.355 14.442l-5.641 1.512-6.873 1.234-2.016-8.683 14.53 5.937zm-14.755 4.826l-9.408 16.493-4.635-15.574h8.144a.82.82 0 00.132-.011l5.767-.908zm-17.418-.767h-7.562l-5.766-.848 1.895-9.157 11.433 10.005zm1.089 1.686l-4.977 15.57-8.897-16.318 5.04.74c.04.006.082.008.122.008h8.712zm-16.091-2.763l-7.056-.882-5.278-1.527 14.204-6.629-1.87 9.038zm-15.993-3.707l-5.966-2.635 3.746-5.689 2.22 8.324zm8.533 4.463a.656.656 0 00.129.026l7.465.933 8.192 15.028-19.621-17.096 3.835 1.109zm24.677 4.022l4.639 15.587-4.927 8.638-4.699-8.621 4.987-15.604zm17.342-3.283l7.309-1.312a.517.517 0 00.068-.016l4.522-1.213-20.536 17.686 8.637-15.145zm17.545-13.269l4.074 5.434-5.298 2.173 1.224-7.607zm5.564 4.611l-3.196-4.263 5.221 2.703-2.025 1.56zm-5.493-7.35l-4.672-7.318 4.171 1.011 6.859 9.598-6.358-3.291zm-6.759-7.451l4.15 6.499-9.129-3.181 4.979-3.318zM64.17 40.255l-10.841-4.413 16.136-1.619-5.295 6.032zm-27.969-.19l-5.534-5.825 15.773 1.602-10.239 4.223zm-18.871-4.17l4.638-6.205 4.638 3.205-9.276 3zm4.136-8.167l-.147.022.29-.118-.143.096zm-6.494 2.669l4.906-.729-5.378 7.197-6.076 3.407 6.548-9.875zm-2.514 9.547l-2.936 4.458-2.173-1.592 5.109-2.866zm5.237 10.098l6.2 7.803-11.094-9.966 4.894 2.163zm6.915 5.994l18.991 16.547 3.169 5.816-15.354-13.795-6.806-8.568zm31.768 16.555l18.925-16.296-7.412 8.79-14.735 13.158 3.222-5.652zm26.894-23.127l3.905-1.603-10.35 9.242 6.445-7.639zm10.091-9.379l-1.738-2.432 1.738 1.727v.705zm-43.5-17.513l20.976 2.014 6.222 3.873-5.843 3.893-21.354 2.143-21.075-2.141-5.513-3.811 5.9-3.958 20.687-2.013zM7.954 37.931l-1.318 1.987v-.56l1.318-1.427z"></path></g><!----></svg>